<svg id="a0042d0d-cded-416c-9735-18d85606da4e" data-name="Layer 1" xmlns="http://www.w3.org/2000/svg" xmlns:xlink="http://www.w3.org/1999/xlink" viewBox="0 0 305.81 222"><defs><clipPath id="d4380c80-2adc-4085-ace4-5a23ebd163d4" transform="translate(0)"><rect width="305.81" height="222" fill="none"/></clipPath></defs><title>big-logo</title><g clip-path="url(#d4380c80-2adc-4085-ace4-5a23ebd163d4)"><path d="M211,64A58,58,0,1,1,152.91,6,58,58,0,0,1,211,64" transform="translate(0)" fill="#345972"/><path d="M152.91,2.9A61.1,61.1,0,1,1,91.81,64a61.1,61.1,0,0,1,61.1-61.1m0-2.9a64,64,0,1,0,64,64,64.07,64.07,0,0,0-64-64" transform="translate(0)" fill="#345972"/><path d="M181.93,71.26H138.39a14.51,14.51,0,0,1-14.51-14.51h43.54a14.51,14.51,0,0,1,14.51,14.51" transform="translate(0)" fill="#fff"/><path d="M167.42,27.72h-29a14.51,14.51,0,0,0-14.51,14.51v11h14.51v-11h43.54a14.51,14.51,0,0,0-14.51-14.51" transform="translate(0)" fill="#fff"/><path d="M167.42,74.74v11H123.88a14.51,14.51,0,0,0,14.51,14.51h29a14.51,14.51,0,0,0,14.51-14.51v-11H167.42Z" transform="translate(0)" fill="#fff"/><path d="M1.82,220.54V209.73q11.18,1.09,19.09,1.09a49,49,0,0,0,7.23-.41A8.4,8.4,0,0,0,32,209a3.93,3.93,0,0,0,1.5-2.18,15.85,15.85,0,0,0,.32-3.64,14.85,14.85,0,0,0-.36-3.86A2.93,2.93,0,0,0,32,197.5a10.57,10.57,0,0,0-3.64-.86L15,195.09q-6-.82-9.27-3.14a11.78,11.78,0,0,1-4.5-6A29.24,29.24,0,0,1,0,176.82q0-8,2.91-12.14a13.37,13.37,0,0,1,7.82-5.41A51.72,51.72,0,0,1,23.36,158a98.38,98.38,0,0,1,20.36,1.82v10.55A133.63,133.63,0,0,0,26,169.18q-8.18,0-10.82,1.36a3.27,3.27,0,0,0-1.82,1.91A12.91,12.91,0,0,0,13,176a14.78,14.78,0,0,0,.36,3.91A2.58,2.58,0,0,0,15,181.59a18,18,0,0,0,4.13.86l14.36,1.73a23.07,23.07,0,0,1,6.91,1.68,9,9,0,0,1,4.27,4q2.18,3.91,2.18,12.09,0,8.64-2.73,13a12.54,12.54,0,0,1-7.32,5.68,45,45,0,0,1-12,1.32,154.73,154.73,0,0,1-22.91-1.46" transform="translate(0)" fill="#345972"/><polygon points="73.09 221.27 73.09 170.46 54.91 170.46 54.91 158.73 104.18 158.73 104.18 170.46 86 170.46 86 221.27 73.09 221.27" fill="#345972"/><path d="M151,221.27l-4.54-13.45H122.09l-4.45,13.45h-13l21.18-62.54h17.36l21.18,62.54H151Zm-16.54-50.36H134l-8.46,25.64H143Z" transform="translate(0)" fill="#345972"/><path d="M173.72,220.54V209.73q11.18,1.09,19.09,1.09a49.06,49.06,0,0,0,7.23-.41,8.41,8.41,0,0,0,3.87-1.41,3.93,3.93,0,0,0,1.5-2.18,15.85,15.85,0,0,0,.32-3.64,14.85,14.85,0,0,0-.36-3.86,2.93,2.93,0,0,0-1.45-1.82,10.58,10.58,0,0,0-3.64-.86l-13.36-1.55q-6-.82-9.27-3.14a11.77,11.77,0,0,1-4.5-6,29.21,29.21,0,0,1-1.23-9.14q0-8,2.91-12.14a13.37,13.37,0,0,1,7.82-5.41A51.72,51.72,0,0,1,195.27,158a98.38,98.38,0,0,1,20.36,1.82v10.55a133.62,133.62,0,0,0-17.73-1.18q-8.18,0-10.82,1.36a3.27,3.27,0,0,0-1.82,1.91,12.91,12.91,0,0,0-.36,3.55,14.78,14.78,0,0,0,.36,3.91,2.58,2.58,0,0,0,1.59,1.68,18,18,0,0,0,4.13.86l14.36,1.73a23.07,23.07,0,0,1,6.91,1.68,9,9,0,0,1,4.27,4q2.18,3.91,2.18,12.09,0,8.64-2.73,13a12.54,12.54,0,0,1-7.32,5.68,45,45,0,0,1-12,1.32,154.73,154.73,0,0,1-22.91-1.46" transform="translate(0)" fill="#345972"/><rect x="232.45" y="158.73" width="12.91" height="62.54" fill="#345972"/><path d="M260.81,220.54V209.73q11.18,1.09,19.09,1.09a49,49,0,0,0,7.23-.41A8.41,8.41,0,0,0,291,209a3.93,3.93,0,0,0,1.5-2.18,15.86,15.86,0,0,0,.32-3.64,14.91,14.91,0,0,0-.36-3.86A2.93,2.93,0,0,0,291,197.5a10.57,10.57,0,0,0-3.64-.86L274,195.09q-6-.82-9.27-3.14a11.77,11.77,0,0,1-4.5-6,29.24,29.24,0,0,1-1.23-9.14q0-8,2.91-12.14a13.37,13.37,0,0,1,7.82-5.41A51.73,51.73,0,0,1,282.36,158a98.38,98.38,0,0,1,20.36,1.82v10.55A133.64,133.64,0,0,0,285,169.18q-8.18,0-10.82,1.36a3.27,3.27,0,0,0-1.82,1.91A12.87,12.87,0,0,0,272,176a14.73,14.73,0,0,0,.36,3.91,2.57,2.57,0,0,0,1.59,1.68,18,18,0,0,0,4.13.86l14.36,1.73a23.07,23.07,0,0,1,6.91,1.68,9,9,0,0,1,4.27,4q2.18,3.91,2.18,12.09,0,8.64-2.73,13a12.54,12.54,0,0,1-7.32,5.68,45,45,0,0,1-12,1.32,154.71,154.71,0,0,1-22.91-1.46" transform="translate(0)" fill="#345972"/></g></svg>