<svg id="86283473-980a-4c00-a7db-af4c8c827df1" data-name="Layer 1" xmlns="http://www.w3.org/2000/svg" viewBox="0 0 236.91 64"><title>Vector Smart Object3</title><path d="M116,522a32,32,0,1,0,32,32A32,32,0,0,0,116,522Zm16,44a8,8,0,0,1-8,8H108a8,8,0,0,1-8-8h24v-5h8v5Zm-24-8a8,8,0,0,1-8-8h24a8,8,0,0,1,8,8H108Zm0-16v5h-8v-5a8,8,0,0,1,8-8h16a8,8,0,0,1,8,8H108Z" transform="translate(-84 -522)" fill="#fff"/><path d="M168.91,569.27v-5.41q5.59,0.54,9.55.54a24.56,24.56,0,0,0,3.61-.2,4.2,4.2,0,0,0,1.93-.7,2,2,0,0,0,.75-1.09,7.93,7.93,0,0,0,.16-1.82,7.43,7.43,0,0,0-.18-1.93,1.46,1.46,0,0,0-.73-0.91,5.28,5.28,0,0,0-1.82-.43l-6.68-.77a10.47,10.47,0,0,1-4.64-1.57,5.88,5.88,0,0,1-2.25-3,14.61,14.61,0,0,1-.61-4.57,10.52,10.52,0,0,1,1.45-6.07,6.69,6.69,0,0,1,3.91-2.7,25.85,25.85,0,0,1,6.32-.64,49.15,49.15,0,0,1,10.18.91v5.27a66.76,66.76,0,0,0-8.86-.59q-4.09,0-5.41.68a1.63,1.63,0,0,0-.91,1,6.44,6.44,0,0,0-.18,1.77,7.37,7.37,0,0,0,.18,2,1.29,1.29,0,0,0,.8.84,9,9,0,0,0,2.07.43l7.18,0.86a11.55,11.55,0,0,1,3.45.84,4.52,4.52,0,0,1,2.14,2,12.86,12.86,0,0,1,1.09,6q0,4.32-1.36,6.5a6.27,6.27,0,0,1-3.66,2.84,22.48,22.48,0,0,1-6,.66A77.42,77.42,0,0,1,168.91,569.27Z" transform="translate(-84 -522)" fill="#fff"/><path d="M204.54,569.64V544.23h-9.09v-5.86h24.64v5.86H211v25.41h-6.45Z" transform="translate(-84 -522)" fill="#fff"/><path d="M243.5,569.64l-2.27-6.73H229l-2.23,6.73h-6.5l10.59-31.27h8.68l10.59,31.27H243.5Zm-8.27-25.18H235l-4.23,12.82h8.73Z" transform="translate(-84 -522)" fill="#fff"/><path d="M254.86,569.27v-5.41q5.59,0.54,9.55.54a24.56,24.56,0,0,0,3.61-.2,4.2,4.2,0,0,0,1.93-.7,2,2,0,0,0,.75-1.09,7.93,7.93,0,0,0,.16-1.82,7.43,7.43,0,0,0-.18-1.93,1.46,1.46,0,0,0-.73-0.91,5.28,5.28,0,0,0-1.82-.43l-6.68-.77a10.47,10.47,0,0,1-4.64-1.57,5.88,5.88,0,0,1-2.25-3,14.61,14.61,0,0,1-.61-4.57,10.52,10.52,0,0,1,1.45-6.07,6.69,6.69,0,0,1,3.91-2.7,25.85,25.85,0,0,1,6.32-.64,49.15,49.15,0,0,1,10.18.91v5.27a66.76,66.76,0,0,0-8.86-.59q-4.09,0-5.41.68a1.63,1.63,0,0,0-.91,1,6.44,6.44,0,0,0-.18,1.77,7.37,7.37,0,0,0,.18,2,1.29,1.29,0,0,0,.8.84,9,9,0,0,0,2.07.43l7.18,0.86a11.55,11.55,0,0,1,3.45.84,4.52,4.52,0,0,1,2.14,2,12.86,12.86,0,0,1,1.09,6q0,4.32-1.36,6.5a6.27,6.27,0,0,1-3.66,2.84,22.48,22.48,0,0,1-6,.66A77.42,77.42,0,0,1,254.86,569.27Z" transform="translate(-84 -522)" fill="#fff"/><path d="M284.22,569.64V538.36h6.45v31.27h-6.45Z" transform="translate(-84 -522)" fill="#fff"/><path d="M298.41,569.27v-5.41q5.59,0.54,9.55.54a24.56,24.56,0,0,0,3.61-.2,4.2,4.2,0,0,0,1.93-.7,2,2,0,0,0,.75-1.09,7.93,7.93,0,0,0,.16-1.82,7.43,7.43,0,0,0-.18-1.93,1.46,1.46,0,0,0-.73-0.91,5.28,5.28,0,0,0-1.82-.43l-6.68-.77a10.47,10.47,0,0,1-4.64-1.57,5.88,5.88,0,0,1-2.25-3,14.61,14.61,0,0,1-.61-4.57,10.52,10.52,0,0,1,1.45-6.07,6.69,6.69,0,0,1,3.91-2.7,25.85,25.85,0,0,1,6.32-.64,49.15,49.15,0,0,1,10.18.91v5.27a66.76,66.76,0,0,0-8.86-.59q-4.09,0-5.41.68a1.63,1.63,0,0,0-.91,1A6.44,6.44,0,0,0,304,547a7.37,7.37,0,0,0,.18,2,1.29,1.29,0,0,0,.8.84,9,9,0,0,0,2.07.43l7.18,0.86a11.55,11.55,0,0,1,3.45.84,4.52,4.52,0,0,1,2.14,2,12.86,12.86,0,0,1,1.09,6q0,4.32-1.36,6.5a6.27,6.27,0,0,1-3.66,2.84,22.48,22.48,0,0,1-6,.66A77.42,77.42,0,0,1,298.41,569.27Z" transform="translate(-84 -522)" fill="#fff"/></svg>